<svg id="svg" fill="#676565" stroke="#676565" width="200" height="200" version="1.1" viewBox="144 144 512 512" xmlns="http://www.w3.org/2000/svg">
    <g id="IconSvg_bgCarrier" stroke-width="0"></g>
    <g id="IconSvg_tracerCarrier" stroke-linecap="round" stroke-linejoin="round" stroke="#CCCCCC" stroke-width="0">
      <g xmlns="http://www.w3.org/2000/svg">
  <path d="m197.5 596.91c2.8281 4.8086 7.9922 7.7617 13.57 7.7617h188.93c3.9492 0.003906 7.7578-1.4805 10.668-4.1562 2.9062-2.6758 4.7031-6.3438 5.0312-10.281s-0.83594-7.8555-3.2617-10.973l-110.21-141.7-0.003907-0.003906c-3.25-4.1719-8.3711-6.4531-13.648-6.0742-5.2891 0.39453-10.023 3.4219-12.594 8.0586l-78.719 141.7h-0.003906c-2.707 4.8945-2.6172 10.859 0.23828 15.668z"></path>
  <path d="m498.57 322.66 22.324-22.152h0.003907c13.461 6.668 29.297 6.5117 42.629-0.41406 13.332-6.9258 22.562-19.793 24.852-34.641 2.2852-14.852-2.6445-29.898-13.273-40.516-9-8.5859-20.957-13.379-33.395-13.379s-24.395 4.793-33.395 13.379c-6.793 6.8242-11.34 15.562-13.027 25.039-1.6875 9.4805-0.4375 19.25 3.582 28l-22.672 22.5-101.39-100.59c-2.9492-2.918-6.9297-4.5547-11.078-4.5547-4.1445 0-8.125 1.6367-11.074 4.5547-36.684 37.547-57.227 87.949-57.246 140.44-0.51562 21.77 3.3086 43.422 11.254 63.695 7.9453 20.277 19.848 38.762 35.02 54.387 31.465 29.801 73.43 45.957 116.76 44.949 52.887-0.054687 103.66-20.762 141.51-57.703 2.9805-2.957 4.6562-6.9805 4.6562-11.18 0-4.1953-1.6758-8.2188-4.6562-11.176zm31.992-75.492c2.9531-2.9531 6.957-4.6094 11.133-4.6094 4.1758 0 8.1797 1.6562 11.129 4.6094 2.9531 2.9531 4.6133 6.957 4.6133 11.129 0 4.1758-1.6602 8.1797-4.6133 11.133-2.9609 2.8281-6.8945 4.418-10.992 4.4414-4.0977 0.023438-8.0508-1.5195-11.047-4.3164-0.17188-0.1875-0.23438-0.42578-0.41016-0.61328l-0.21875-0.14062c-2.7109-2.9766-4.1758-6.875-4.1016-10.898 0.074218-4.0234 1.6914-7.8633 4.5078-10.734z"></path>
 </g>

      </g>
     <g id="IconSvg_iconCarrier">
      <g xmlns="http://www.w3.org/2000/svg">
  <path d="m197.5 596.91c2.8281 4.8086 7.9922 7.7617 13.57 7.7617h188.93c3.9492 0.003906 7.7578-1.4805 10.668-4.1562 2.9062-2.6758 4.7031-6.3438 5.0312-10.281s-0.83594-7.8555-3.2617-10.973l-110.21-141.7-0.003907-0.003906c-3.25-4.1719-8.3711-6.4531-13.648-6.0742-5.2891 0.39453-10.023 3.4219-12.594 8.0586l-78.719 141.7h-0.003906c-2.707 4.8945-2.6172 10.859 0.23828 15.668z"></path>
  <path d="m498.57 322.66 22.324-22.152h0.003907c13.461 6.668 29.297 6.5117 42.629-0.41406 13.332-6.9258 22.562-19.793 24.852-34.641 2.2852-14.852-2.6445-29.898-13.273-40.516-9-8.5859-20.957-13.379-33.395-13.379s-24.395 4.793-33.395 13.379c-6.793 6.8242-11.34 15.562-13.027 25.039-1.6875 9.4805-0.4375 19.25 3.582 28l-22.672 22.5-101.39-100.59c-2.9492-2.918-6.9297-4.5547-11.078-4.5547-4.1445 0-8.125 1.6367-11.074 4.5547-36.684 37.547-57.227 87.949-57.246 140.44-0.51562 21.77 3.3086 43.422 11.254 63.695 7.9453 20.277 19.848 38.762 35.02 54.387 31.465 29.801 73.43 45.957 116.76 44.949 52.887-0.054687 103.66-20.762 141.51-57.703 2.9805-2.957 4.6562-6.9805 4.6562-11.18 0-4.1953-1.6758-8.2188-4.6562-11.176zm31.992-75.492c2.9531-2.9531 6.957-4.6094 11.133-4.6094 4.1758 0 8.1797 1.6562 11.129 4.6094 2.9531 2.9531 4.6133 6.957 4.6133 11.129 0 4.1758-1.6602 8.1797-4.6133 11.133-2.9609 2.8281-6.8945 4.418-10.992 4.4414-4.0977 0.023438-8.0508-1.5195-11.047-4.3164-0.17188-0.1875-0.23438-0.42578-0.41016-0.61328l-0.21875-0.14062c-2.7109-2.9766-4.1758-6.875-4.1016-10.898 0.074218-4.0234 1.6914-7.8633 4.5078-10.734z"></path>
 </g>

      </g>
      </svg>