<svg id="svg" fill="#676565" stroke="#676565" width="200" height="200" version="1.1" viewBox="144 144 512 512" xmlns="http://www.w3.org/2000/svg">
    <g id="IconSvg_bgCarrier" stroke-width="0"></g>
    <g id="IconSvg_tracerCarrier" stroke-linecap="round" stroke-linejoin="round" stroke="#CCCCCC" stroke-width="0">
      <g xmlns="http://www.w3.org/2000/svg">
  <path d="m413.6 232.73h-13.098c-2.5195-15.617-16.121-27.711-32.746-27.711s-30.23 12.09-32.746 27.711h-13.098c-14.105 0-25.695 10.078-25.695 23.176v4.5352h-49.375c-3.0234 0-5.0391 2.0156-5.0391 5.0391v321.43c0 3.0234 2.0156 5.0391 5.0391 5.0391h241.32c3.0234 0 5.0391-2.0156 5.0391-5.0391l-0.003906-321.94c0-3.0234-2.0156-5.0391-5.0391-5.0391h-49.375v-4.5352c0.50781-12.594-11.082-22.668-25.188-22.668zm-106.81 22.672c0-7.0547 7.0547-13.098 15.617-13.098h17.633c3.0234 0 5.0391-2.0156 5.0391-5.0391 0-12.594 10.078-22.672 22.672-22.672s22.672 10.078 22.672 22.672c0 3.0234 2.0156 5.0391 5.0391 5.0391h17.633c8.5664 0 15.617 5.543 15.617 13.098v23.68h-121.92zm176.84 326.47h-231.25v-311.86h20.656v278.1c0 3.0234 2.0156 5.0391 5.0391 5.0391h179.36c3.0234 0 5.0391-2.0156 5.0391-5.0391v-278.1h20.656v311.86zm-31.238-311.86v273.07h-169.28v-273.07h13.602l0.003906 14.105c0 3.0234 2.0156 5.0391 5.0391 5.0391h132.5c3.0234 0 5.0391-2.0156 5.0391-5.0391v-14.105z"></path>
  <path d="m375.31 237.77c0 4.1719-3.3828 7.5547-7.5586 7.5547-4.1719 0-7.5547-3.3828-7.5547-7.5547 0-4.1758 3.3828-7.5586 7.5547-7.5586 4.1758 0 7.5586 3.3828 7.5586 7.5586"></path>
  <path d="m428.21 447.86h-120.91c-3.0234 0-5.0391 2.0156-5.0391 5.0391 0 3.0234 2.0156 5.0391 5.0391 5.0391h120.91c3.0234 0 5.0391-2.0156 5.0391-5.0391 0-3.0234-2.0156-5.0391-5.0391-5.0391z"></path>
  <path d="m428.21 488.16h-120.91c-3.0234 0-5.0391 2.0156-5.0391 5.0391s2.0156 5.0391 5.0391 5.0391h120.91c3.0234 0 5.0391-2.0156 5.0391-5.0391s-2.0156-5.0391-5.0391-5.0391z"></path>
  <path d="m564.24 398.49c3.0234 0 5.0391-2.0156 5.0391-5.0391l-0.003906-108.82c0-3.0234-2.0156-5.0391-5.0391-5.0391h-13.098v-14.609c0-3.0234-2.0156-5.0391-5.0391-5.0391h-31.234c-3.0234 0-5.0391 2.0156-5.0391 5.0391v106.3c0 2.5195 1.5117 4.5352 4.0312 5.0391v210.59c0 3.0234 2.0156 5.0391 5.0391 5.0391h23.176c3.0234 0 5.0391-2.0156 5.0391-5.0391l-0.003906-210.59c2.0156-0.50391 4.0312-2.5195 4.0312-5.0391v-81.617h8.0625v103.79c0 3.0234 2.0156 5.0391 5.0391 5.0391zm-27.711 163.23h-13.098v-185.4h13.098zm-17.129-291.71h21.16v96.227h-21.16zm4.0312 311.86v-10.078h13.098v10.078z"></path>
  <path d="m363.72 369.27v27.711c-5.0391-2.0156-8.5664-7.0547-8.5664-13.098 0-3.0234-2.0156-5.0391-5.0391-5.0391-3.0234 0-5.0391 2.0156-5.0391 5.0391 0 11.586 8.0625 20.656 18.641 23.68v4.0312c0 3.0234 2.0156 5.0391 5.0391 5.0391 3.0234 0 5.0391-2.0156 5.0391-5.0391v-3.5273c11.586-2.0156 20.152-12.09 20.152-23.68 0-11.586-8.5664-21.664-20.152-23.68v-27.711c5.543 2.0156 9.0703 7.0547 9.0703 13.098 0 3.0234 2.0156 5.0391 5.0391 5.0391s5.0391-2.0156 5.0391-5.0391c0-11.586-8.0625-21.16-19.145-23.68v-4.0312c0-3.0234-2.0156-5.0391-5.0391-5.0391-3.0234 0-5.0391 2.0156-5.0391 5.0391v4.0312c-11.082 2.0156-19.145 11.59-19.145 23.176 0 11.59 8.0625 21.664 19.145 23.68zm20.152 15.113c0 6.5508-4.0312 11.586-10.078 13.602v-26.703c5.5469 1.0117 10.078 6.5547 10.078 13.102zm-20.152-51.891v26.199c-5.543-2.0156-9.0703-7.0547-9.0703-13.098 0.003906-6.0469 3.5312-11.086 9.0703-13.102z"></path>
 </g>

      </g>
     <g id="IconSvg_iconCarrier">
      <g xmlns="http://www.w3.org/2000/svg">
  <path d="m413.6 232.73h-13.098c-2.5195-15.617-16.121-27.711-32.746-27.711s-30.23 12.09-32.746 27.711h-13.098c-14.105 0-25.695 10.078-25.695 23.176v4.5352h-49.375c-3.0234 0-5.0391 2.0156-5.0391 5.0391v321.43c0 3.0234 2.0156 5.0391 5.0391 5.0391h241.32c3.0234 0 5.0391-2.0156 5.0391-5.0391l-0.003906-321.94c0-3.0234-2.0156-5.0391-5.0391-5.0391h-49.375v-4.5352c0.50781-12.594-11.082-22.668-25.188-22.668zm-106.81 22.672c0-7.0547 7.0547-13.098 15.617-13.098h17.633c3.0234 0 5.0391-2.0156 5.0391-5.0391 0-12.594 10.078-22.672 22.672-22.672s22.672 10.078 22.672 22.672c0 3.0234 2.0156 5.0391 5.0391 5.0391h17.633c8.5664 0 15.617 5.543 15.617 13.098v23.68h-121.92zm176.84 326.47h-231.25v-311.86h20.656v278.1c0 3.0234 2.0156 5.0391 5.0391 5.0391h179.36c3.0234 0 5.0391-2.0156 5.0391-5.0391v-278.1h20.656v311.86zm-31.238-311.86v273.07h-169.28v-273.07h13.602l0.003906 14.105c0 3.0234 2.0156 5.0391 5.0391 5.0391h132.5c3.0234 0 5.0391-2.0156 5.0391-5.0391v-14.105z"></path>
  <path d="m375.31 237.77c0 4.1719-3.3828 7.5547-7.5586 7.5547-4.1719 0-7.5547-3.3828-7.5547-7.5547 0-4.1758 3.3828-7.5586 7.5547-7.5586 4.1758 0 7.5586 3.3828 7.5586 7.5586"></path>
  <path d="m428.21 447.86h-120.91c-3.0234 0-5.0391 2.0156-5.0391 5.0391 0 3.0234 2.0156 5.0391 5.0391 5.0391h120.91c3.0234 0 5.0391-2.0156 5.0391-5.0391 0-3.0234-2.0156-5.0391-5.0391-5.0391z"></path>
  <path d="m428.21 488.16h-120.91c-3.0234 0-5.0391 2.0156-5.0391 5.0391s2.0156 5.0391 5.0391 5.0391h120.91c3.0234 0 5.0391-2.0156 5.0391-5.0391s-2.0156-5.0391-5.0391-5.0391z"></path>
  <path d="m564.24 398.49c3.0234 0 5.0391-2.0156 5.0391-5.0391l-0.003906-108.82c0-3.0234-2.0156-5.0391-5.0391-5.0391h-13.098v-14.609c0-3.0234-2.0156-5.0391-5.0391-5.0391h-31.234c-3.0234 0-5.0391 2.0156-5.0391 5.0391v106.3c0 2.5195 1.5117 4.5352 4.0312 5.0391v210.59c0 3.0234 2.0156 5.0391 5.0391 5.0391h23.176c3.0234 0 5.0391-2.0156 5.0391-5.0391l-0.003906-210.59c2.0156-0.50391 4.0312-2.5195 4.0312-5.0391v-81.617h8.0625v103.79c0 3.0234 2.0156 5.0391 5.0391 5.0391zm-27.711 163.23h-13.098v-185.4h13.098zm-17.129-291.71h21.16v96.227h-21.16zm4.0312 311.86v-10.078h13.098v10.078z"></path>
  <path d="m363.72 369.27v27.711c-5.0391-2.0156-8.5664-7.0547-8.5664-13.098 0-3.0234-2.0156-5.0391-5.0391-5.0391-3.0234 0-5.0391 2.0156-5.0391 5.0391 0 11.586 8.0625 20.656 18.641 23.68v4.0312c0 3.0234 2.0156 5.0391 5.0391 5.0391 3.0234 0 5.0391-2.0156 5.0391-5.0391v-3.5273c11.586-2.0156 20.152-12.09 20.152-23.68 0-11.586-8.5664-21.664-20.152-23.68v-27.711c5.543 2.0156 9.0703 7.0547 9.0703 13.098 0 3.0234 2.0156 5.0391 5.0391 5.0391s5.0391-2.0156 5.0391-5.0391c0-11.586-8.0625-21.16-19.145-23.68v-4.0312c0-3.0234-2.0156-5.0391-5.0391-5.0391-3.0234 0-5.0391 2.0156-5.0391 5.0391v4.0312c-11.082 2.0156-19.145 11.59-19.145 23.176 0 11.59 8.0625 21.664 19.145 23.68zm20.152 15.113c0 6.5508-4.0312 11.586-10.078 13.602v-26.703c5.5469 1.0117 10.078 6.5547 10.078 13.102zm-20.152-51.891v26.199c-5.543-2.0156-9.0703-7.0547-9.0703-13.098 0.003906-6.0469 3.5312-11.086 9.0703-13.102z"></path>
 </g>

      </g>
      </svg>