<svg id="svg" fill="#676565" stroke="#676565" width="199" height="199" version="1.1" viewBox="143 143 514 514" xmlns="http://www.w3.org/2000/svg">
    <g id="IconSvg_bgCarrier" stroke-width="0"></g>
    <g id="IconSvg_tracerCarrier" stroke-linecap="round" stroke-linejoin="round" stroke="#CCCCCC" stroke-width="0">
      <g xmlns="http://www.w3.org/2000/svg">
  <path d="m516.98 265.84h-21.73c-15.16 0-27.289 12.129-27.289 27.289v219.31c0 4.043 3.5391 7.5781 7.5781 7.5781h61.145c4.043 0 7.5781-3.5391 7.5781-7.5781l0.007812-219.32c0-15.16-12.129-27.285-27.289-27.285zm12.129 239.02h-45.984v-211.73c0-6.5703 5.5586-12.129 12.129-12.129l21.727 0.003906c6.5703 0 12.129 5.5586 12.129 12.129z"></path>
  <path d="m430.57 520.01c4.043 0 7.5781-3.5391 7.5781-7.5781l0.003906-157.66c0-15.16-12.129-27.289-27.289-27.289h-21.73c-15.16 0-27.289 12.129-27.289 27.289v157.66c0 4.043 3.5391 7.5781 7.5781 7.5781zm-53.562-165.24c0-6.5703 5.5586-12.129 12.129-12.129h21.727c6.5703 0 12.129 5.5586 12.129 12.129v150.08h-45.984z"></path>
  <path d="m324.45 520.01c4.043 0 7.5781-3.5391 7.5781-7.5781v-95.508c0-15.16-12.129-27.289-27.289-27.289h-21.73c-15.16 0-27.289 12.129-27.289 27.289v95.508c0 4.043 3.5391 7.5781 7.5781 7.5781zm-53.566-103.09c0-6.5703 5.5586-12.129 12.129-12.129l21.73 0.003906c6.5703 0 12.129 5.5586 12.129 12.129v87.926h-45.984z"></path>
 </g>

      </g>
     <g id="IconSvg_iconCarrier">
      <g xmlns="http://www.w3.org/2000/svg">
  <path d="m516.98 265.84h-21.73c-15.16 0-27.289 12.129-27.289 27.289v219.31c0 4.043 3.5391 7.5781 7.5781 7.5781h61.145c4.043 0 7.5781-3.5391 7.5781-7.5781l0.007812-219.32c0-15.16-12.129-27.285-27.289-27.285zm12.129 239.02h-45.984v-211.73c0-6.5703 5.5586-12.129 12.129-12.129l21.727 0.003906c6.5703 0 12.129 5.5586 12.129 12.129z"></path>
  <path d="m430.57 520.01c4.043 0 7.5781-3.5391 7.5781-7.5781l0.003906-157.66c0-15.16-12.129-27.289-27.289-27.289h-21.73c-15.16 0-27.289 12.129-27.289 27.289v157.66c0 4.043 3.5391 7.5781 7.5781 7.5781zm-53.562-165.24c0-6.5703 5.5586-12.129 12.129-12.129h21.727c6.5703 0 12.129 5.5586 12.129 12.129v150.08h-45.984z"></path>
  <path d="m324.45 520.01c4.043 0 7.5781-3.5391 7.5781-7.5781v-95.508c0-15.16-12.129-27.289-27.289-27.289h-21.73c-15.16 0-27.289 12.129-27.289 27.289v95.508c0 4.043 3.5391 7.5781 7.5781 7.5781zm-53.566-103.09c0-6.5703 5.5586-12.129 12.129-12.129l21.73 0.003906c6.5703 0 12.129 5.5586 12.129 12.129v87.926h-45.984z"></path>
 </g>

      </g>
      </svg>