<svg id="svg" fill="#676565" stroke="#676565" width="200" height="200" version="1.1" viewBox="144 144 512 512" xmlns="http://www.w3.org/2000/svg">
    <g id="IconSvg_bgCarrier" stroke-width="0"></g>
    <g id="IconSvg_tracerCarrier" stroke-linecap="round" stroke-linejoin="round" stroke="#CCCCCC" stroke-width="0">
      <g xmlns="http://www.w3.org/2000/svg">
  <path d="m335.88 620.99h128.24l6.8672-14.504h-141.98z"></path>
  <path d="m640.45 179.01h-480.91c-1.9102 0-3.8164 1.5273-3.8164 3.8164v371.37c0 1.9102 1.5273 3.8164 3.8164 3.8164h191.22l-8.3984 40.84h115.27l-8.3984-40.84h7.6328l183.59 0.003907c1.9102 0 3.8164-1.5273 3.8164-3.8164v-371.37c0-1.9062-1.5273-3.8164-3.8164-3.8164zm-255.72 348.47c0-8.3984 6.8711-15.266 15.266-15.266 8.3984 0 15.266 6.8711 15.266 15.266 0 8.3984-6.8711 15.266-15.266 15.266-8.3945 0.003906-15.266-6.8672-15.266-15.266zm-221.37-23.281v-317.55h473.28v317.93h-473.28z"></path>
  <path d="m407.63 527.48c0-4.1992-3.4336-7.6328-7.6328-7.6328s-7.6328 3.4336-7.6328 7.6328c0 4.1992 3.4336 7.6328 7.6328 7.6328 4.1953 0.38281 7.6328-3.4336 7.6328-7.6328z"></path>
  <path d="m604.96 451.14h-13.359v-93.895c0-1.9102-1.5273-3.8164-3.8164-3.8164s-3.8164 1.5273-3.8164 3.8164v93.891h-26.719l0.003906-79.004c0-1.9102-1.5273-3.8164-3.8164-3.8164-1.9102 0-3.8164 1.5273-3.8164 3.8164v79.008h-26.719v-116.41c0-1.9102-1.5273-3.8164-3.8164-3.8164-2.2891 0-3.8164 1.5273-3.8164 3.8164v116.41h-26.719v-169.08c0-1.9102-1.5273-3.8164-3.8164-3.8164-2.2891 0-3.8164 1.5273-3.8164 3.8164v169.08h-26.719v-154.2c0-1.9102-1.5273-3.8164-3.8164-3.8164-1.9102 0-3.8164 1.5273-3.8164 3.8164v154.2h-26.719v-109.16c0-1.9102-1.5273-3.8164-3.8164-3.8164-2.2891 0-3.8164 1.5273-3.8164 3.8164v109.16h-26.719l0.003906-109.16c0-1.9102-1.5273-3.8164-3.8164-3.8164-2.2891 0-3.8164 1.5273-3.8164 3.8164v109.16h-26.719v-79.008c0-1.9102-1.5273-3.8164-3.8164-3.8164s-3.8164 1.5273-3.8164 3.8164v79.008h-26.719v-71.375c0-1.9102-1.5273-3.8164-3.8164-3.8164-2.2891 0-3.8164 1.5273-3.8164 3.8164v71.371h-26.719v-109.16c0-1.9102-1.5273-3.8164-3.8164-3.8164-1.9102 0-3.8164 1.5273-3.8164 3.8164v109.16h-26.719l0.003906-79.008c0-1.9102-1.5273-3.8164-3.8164-3.8164-2.2891 0-3.8164 1.5273-3.8164 3.8164v79.008h-26.719v-48.855c0-1.9102-1.5273-3.8164-3.8164-3.8164-1.9102 0-3.8164 1.5273-3.8164 3.8164v48.855h-13.359c-1.9102 0-3.8164 1.5273-3.8164 3.8164v41.984h417.17v-41.984c2.2891-2.293 0.76563-3.8164-1.1445-3.8164zm-378.62 32.059c0 2.2891-1.5273 3.8164-3.8164 3.8164-1.9102 0-3.8164-1.5273-3.8164-3.8164v-11.449c0-1.9102 1.5273-3.8164 3.8164-3.8164 1.9102 0 3.8164 1.5273 3.8164 3.8164zm50.762 0c0 2.2891-1.5273 3.8164-3.8164 3.8164-1.9102 0-3.8164-1.5273-3.8164-3.8164v-11.449c0-1.9102 1.5273-3.8164 3.8164-3.8164 1.9102 0 3.8164 1.5273 3.8164 3.8164zm50.383 0c0 2.2891-1.5273 3.8164-3.8164 3.8164-1.9102 0-3.8164-1.5273-3.8164-3.8164v-11.449c0-1.9102 1.5273-3.8164 3.8164-3.8164 1.9102 0 3.8164 1.5273 3.8164 3.8164zm50.762 0c0 2.2891-1.5273 3.8164-3.8164 3.8164-1.9102 0-3.8164-1.5273-3.8164-3.8164v-11.449c0-1.9102 1.5273-3.8164 3.8164-3.8164 1.9102 0 3.8164 1.5273 3.8164 3.8164zm50.762 0c0 2.2891-1.5273 3.8164-3.8164 3.8164-1.9102 0-3.8164-1.5273-3.8164-3.8164v-11.449c0-1.9102 1.5273-3.8164 3.8164-3.8164 1.9102 0 3.8164 1.5273 3.8164 3.8164zm50.766 0c0 2.2891-1.5273 3.8164-3.8164 3.8164-1.9102 0-3.8164-1.5273-3.8164-3.8164v-11.449c0-1.9102 1.5273-3.8164 3.8164-3.8164 1.9102 0 3.8164 1.5273 3.8164 3.8164zm50.762 0c0 2.2891-1.5273 3.8164-3.8164 3.8164-1.9102 0-3.8164-1.5273-3.8164-3.8164v-11.449c0-1.9102 1.5273-3.8164 3.8164-3.8164 1.9102 0 3.8164 1.5273 3.8164 3.8164zm50.762 0c0 2.2891-1.5273 3.8164-3.8164 3.8164-1.9102 0-3.8164-1.5273-3.8164-3.8164v-11.449c0-1.9102 1.5273-3.8164 3.8164-3.8164 1.9102 0 3.8164 1.5273 3.8164 3.8164z"></path>
  <path d="m212.21 372.14c0.76172 0 1.9102-0.38281 2.6719-1.1445l79.387-76.715 46.184 50.383c0.76172 0.76172 1.5273 1.1445 2.6719 1.1445 1.1445 0 1.9102-0.38281 2.6719-1.1445l116.41-108.78 98.473 100.38c0.76172 0.76172 1.5273 1.1445 2.6719 1.1445s1.9102-0.38281 2.6719-1.1445l24.426-27.098c1.5273-1.5273 1.1445-3.8164-0.38281-5.3438-1.5273-1.5273-3.8164-1.1445-5.3438 0.38281l-21.754 24.047-98.09-100c-1.5273-1.5273-3.8164-1.5273-5.3438 0l-116.03 108.39-46.184-50.383c-0.76172-0.76172-1.5273-1.1445-2.6719-1.1445s-1.9102 0.38281-2.6719 1.1445l-82.059 79.391c-1.5273 1.5273-1.5273 3.8164 0 5.3438 0.37891 0.76172 1.5273 1.1445 2.2891 1.1445z"></path>
 </g>

      </g>
     <g id="IconSvg_iconCarrier">
      <g xmlns="http://www.w3.org/2000/svg">
  <path d="m335.88 620.99h128.24l6.8672-14.504h-141.98z"></path>
  <path d="m640.45 179.01h-480.91c-1.9102 0-3.8164 1.5273-3.8164 3.8164v371.37c0 1.9102 1.5273 3.8164 3.8164 3.8164h191.22l-8.3984 40.84h115.27l-8.3984-40.84h7.6328l183.59 0.003907c1.9102 0 3.8164-1.5273 3.8164-3.8164v-371.37c0-1.9062-1.5273-3.8164-3.8164-3.8164zm-255.72 348.47c0-8.3984 6.8711-15.266 15.266-15.266 8.3984 0 15.266 6.8711 15.266 15.266 0 8.3984-6.8711 15.266-15.266 15.266-8.3945 0.003906-15.266-6.8672-15.266-15.266zm-221.37-23.281v-317.55h473.28v317.93h-473.28z"></path>
  <path d="m407.63 527.48c0-4.1992-3.4336-7.6328-7.6328-7.6328s-7.6328 3.4336-7.6328 7.6328c0 4.1992 3.4336 7.6328 7.6328 7.6328 4.1953 0.38281 7.6328-3.4336 7.6328-7.6328z"></path>
  <path d="m604.96 451.14h-13.359v-93.895c0-1.9102-1.5273-3.8164-3.8164-3.8164s-3.8164 1.5273-3.8164 3.8164v93.891h-26.719l0.003906-79.004c0-1.9102-1.5273-3.8164-3.8164-3.8164-1.9102 0-3.8164 1.5273-3.8164 3.8164v79.008h-26.719v-116.41c0-1.9102-1.5273-3.8164-3.8164-3.8164-2.2891 0-3.8164 1.5273-3.8164 3.8164v116.41h-26.719v-169.08c0-1.9102-1.5273-3.8164-3.8164-3.8164-2.2891 0-3.8164 1.5273-3.8164 3.8164v169.08h-26.719v-154.2c0-1.9102-1.5273-3.8164-3.8164-3.8164-1.9102 0-3.8164 1.5273-3.8164 3.8164v154.2h-26.719v-109.16c0-1.9102-1.5273-3.8164-3.8164-3.8164-2.2891 0-3.8164 1.5273-3.8164 3.8164v109.16h-26.719l0.003906-109.16c0-1.9102-1.5273-3.8164-3.8164-3.8164-2.2891 0-3.8164 1.5273-3.8164 3.8164v109.16h-26.719v-79.008c0-1.9102-1.5273-3.8164-3.8164-3.8164s-3.8164 1.5273-3.8164 3.8164v79.008h-26.719v-71.375c0-1.9102-1.5273-3.8164-3.8164-3.8164-2.2891 0-3.8164 1.5273-3.8164 3.8164v71.371h-26.719v-109.16c0-1.9102-1.5273-3.8164-3.8164-3.8164-1.9102 0-3.8164 1.5273-3.8164 3.8164v109.16h-26.719l0.003906-79.008c0-1.9102-1.5273-3.8164-3.8164-3.8164-2.2891 0-3.8164 1.5273-3.8164 3.8164v79.008h-26.719v-48.855c0-1.9102-1.5273-3.8164-3.8164-3.8164-1.9102 0-3.8164 1.5273-3.8164 3.8164v48.855h-13.359c-1.9102 0-3.8164 1.5273-3.8164 3.8164v41.984h417.17v-41.984c2.2891-2.293 0.76563-3.8164-1.1445-3.8164zm-378.62 32.059c0 2.2891-1.5273 3.8164-3.8164 3.8164-1.9102 0-3.8164-1.5273-3.8164-3.8164v-11.449c0-1.9102 1.5273-3.8164 3.8164-3.8164 1.9102 0 3.8164 1.5273 3.8164 3.8164zm50.762 0c0 2.2891-1.5273 3.8164-3.8164 3.8164-1.9102 0-3.8164-1.5273-3.8164-3.8164v-11.449c0-1.9102 1.5273-3.8164 3.8164-3.8164 1.9102 0 3.8164 1.5273 3.8164 3.8164zm50.383 0c0 2.2891-1.5273 3.8164-3.8164 3.8164-1.9102 0-3.8164-1.5273-3.8164-3.8164v-11.449c0-1.9102 1.5273-3.8164 3.8164-3.8164 1.9102 0 3.8164 1.5273 3.8164 3.8164zm50.762 0c0 2.2891-1.5273 3.8164-3.8164 3.8164-1.9102 0-3.8164-1.5273-3.8164-3.8164v-11.449c0-1.9102 1.5273-3.8164 3.8164-3.8164 1.9102 0 3.8164 1.5273 3.8164 3.8164zm50.762 0c0 2.2891-1.5273 3.8164-3.8164 3.8164-1.9102 0-3.8164-1.5273-3.8164-3.8164v-11.449c0-1.9102 1.5273-3.8164 3.8164-3.8164 1.9102 0 3.8164 1.5273 3.8164 3.8164zm50.766 0c0 2.2891-1.5273 3.8164-3.8164 3.8164-1.9102 0-3.8164-1.5273-3.8164-3.8164v-11.449c0-1.9102 1.5273-3.8164 3.8164-3.8164 1.9102 0 3.8164 1.5273 3.8164 3.8164zm50.762 0c0 2.2891-1.5273 3.8164-3.8164 3.8164-1.9102 0-3.8164-1.5273-3.8164-3.8164v-11.449c0-1.9102 1.5273-3.8164 3.8164-3.8164 1.9102 0 3.8164 1.5273 3.8164 3.8164zm50.762 0c0 2.2891-1.5273 3.8164-3.8164 3.8164-1.9102 0-3.8164-1.5273-3.8164-3.8164v-11.449c0-1.9102 1.5273-3.8164 3.8164-3.8164 1.9102 0 3.8164 1.5273 3.8164 3.8164z"></path>
  <path d="m212.21 372.14c0.76172 0 1.9102-0.38281 2.6719-1.1445l79.387-76.715 46.184 50.383c0.76172 0.76172 1.5273 1.1445 2.6719 1.1445 1.1445 0 1.9102-0.38281 2.6719-1.1445l116.41-108.78 98.473 100.38c0.76172 0.76172 1.5273 1.1445 2.6719 1.1445s1.9102-0.38281 2.6719-1.1445l24.426-27.098c1.5273-1.5273 1.1445-3.8164-0.38281-5.3438-1.5273-1.5273-3.8164-1.1445-5.3438 0.38281l-21.754 24.047-98.09-100c-1.5273-1.5273-3.8164-1.5273-5.3438 0l-116.03 108.39-46.184-50.383c-0.76172-0.76172-1.5273-1.1445-2.6719-1.1445s-1.9102 0.38281-2.6719 1.1445l-82.059 79.391c-1.5273 1.5273-1.5273 3.8164 0 5.3438 0.37891 0.76172 1.5273 1.1445 2.2891 1.1445z"></path>
 </g>

      </g>
      </svg>